#!OML:ASF F:\VICON\USERDATA\INSTALL\rory3\rory3.ASF
:FULLY-SPECIFIED
:DEGREES
81
root 0.14290258334796418 17.88198954028844 35.19702260230887 -1.8210884027798477 -4.657195747172613 -7.584565637613158
lfemur -25.274762966202733 -0.31273121514165636 -11.28790044967143
ltibia 39.70312797003869
lfoot -6.163344075778302 4.936267113814667
ltoes -4.485322566462265
rfemur -0.9812227225518075 5.990800608032011 34.57682972752504
rtibia 26.45791259300033
rfoot -18.861915191565316 -6.642509081874861
rtoes 7.54813589561542
lowerback 9.566019316296636 1.9259279938360203 6.530768270531505
upperback 0.5441748495828376 3.373670522280876 2.281994204419862
thorax -4.709242586780009 1.556733592110068 -1.648959942051638
lowerneck -16.357098927738026 -2.8094844371454877 -2.037467790611296
upperneck 20.069469295387677 -3.626693739193784 1.2316263269825838
head 9.035197450611914 -1.7323354573396457 0.30768281633463296
lclavicle -2.2756039236649525e-15 6.112060614329442e-16
lhumerus -32.416437463462586 3.4565603248419388 83.23570505864514
lradius 23.469141963276225
lwrist 3.971449029508044
lhand -28.701989134884784 21.43261962157849
lfingers 7.12502
lthumb -2.0638670480530283 51.393631831945505
rclavicle -2.2756039236649525e-15 6.112060614329442e-16
rhumerus -25.255083603941493 -11.125905287304157 -81.79913442230666
rradius 27.382052268671092
rwrist 2.436133709059505
rhand -17.900520902909868 23.36651755926726
rfingers 7.12502
rthumb 8.36628746198447 -6.450610027078383
82
root 0.16758441815698222 17.820551456483813 35.27506331988351 -1.2384309179638677 -5.2932465123086825 -7.936471810692508
lfemur -24.98348219655084 -2.4092379810762297 -9.797459043067667
ltibia 29.10011526698955
lfoot -5.726329927684899 7.358780943292994
ltoes -3.848619021534895
rfemur 1.8996153528858688 6.15932481227515 35.13296773312626
rtibia 25.444622079706406
rfoot -19.68277954755778 -6.820876471961551
rtoes 6.356141984330938
lowerback 9.33084171592466 2.284164736572652 7.056908652448315
upperback 0.4913439578130295 3.8816761264095763 2.289301765338845
thorax -4.595852366918611 1.800950944290449 -1.906894475729871
lowerneck -16.526374631081833 -2.8093257914371246 -1.9113246196179483
upperneck 19.904040624026567 -3.6395297984550745 1.2409283850917392
head 9.003195628447513 -1.7326870992213923 0.2890912289662214
lclavicle -2.0096528266039022e-15 8.567521779709977e-16
lhumerus -33.22735485834538 5.240621760882528 82.61737506684793
lradius 22.16147278358452
lwrist 3.3927560791964355
lhand -28.642915187421675 22.005968627076697
lfingers 7.12502
lthumb -2.0067931642518033 51.96516141983445
rclavicle -2.0096528266039026e-15 8.567521779709977e-16
rhumerus -24.236012699162107 -10.325369596619577 -81.80835954567226
rradius 28.046867764781535
rwrist 2.0006278089307026
rhand -18.00589382385644 23.958280144740016
rfingers 7.12502
rthumb 8.264585998594658 -5.863745113796954
83
root 0.19652974583146524 17.746608099546087 34.937538961505474 -0.8061589456658427 -5.992328643913107 -8.194877353592203
lfemur -24.682299854351896 -4.436673769172099 -8.823519758398778
ltibia 19.482685479156796
lfoot -5.844524759642384 8.848601781367261
ltoes -3.605035196933802
rfemur 4.423927772485417 6.24806224464486 35.23898138991235
rtibia 24.55713700163141
rfoot -20.768087237816346 -6.741886235211716
rtoes 4.046763717657129
lowerback 9.074094208991552 2.574755673085566 7.264685519296757
upperback 0.43632031791766335 4.262863070867882 2.2238968916959507
thorax -4.498371680757301 1.9891878257354414 -2.1554511597213124
lowerneck -16.676618355720606 -2.821753903846366 -1.8125382935391132
upperneck 19.786692708778773 -3.6750706895615126 1.2620981137619434
head 8.98345408454281 -1.741297603082522 0.27135690465878426
lclavicle -2.2183449913478252e-15 6.644168477558726e-16
lhumerus -34.250202440478276 6.957338753046017 81.83764125094045
lradius 20.61025620794136
lwrist 2.5113919404767664
lhand -28.4466318237153 22.698168675875966
lfingers 7.12502
lthumb -1.8171911804852208 52.65890060162684
rclavicle -2.2183449913478252e-15 6.644168477558726e-16
rhumerus -23.42617451161577 -10.127134841943326 -81.87310168602691
rradius 28.447188165924345
rwrist 1.7281951315587332
rhand -18.110178072002867 24.155958070298297
rfingers 7.12502
rthumb 8.163936784470966 -5.668501167114417
84
root 0.2386624311233938 17.675031302327632 34.744180175519794 -0.6299399429396739 -6.4905452659200495 -8.127296114841528
lfemur -24.30946929701898 -5.561276766702553 -8.749762995177848
ltibia 13.898264697648298
lfoot -5.867876684543016 8.812098114719294
ltoes -3.2864523377426957
rfemur 6.6459398657466195 6.2609248425386 34.97204695570577
rtibia 24.907965724240675
rfoot -21.38555706861434 -5.999573524379303
rtoes 0.9815016119516318
lowerback 8.88650215016642 2.787580373408402 7.194159491113743
upperback 0.40207580121083497 4.5133965112684145 2.0986407963894287
thorax -4.430630076421168 2.1172333242340247 -2.286725577495319
lowerneck -16.752314829226332 -2.8530943078224795 -1.7495258134152967
upperneck 19.75346351386738 -3.7392549568786215 1.320367013423707
head 8.985122320053199 -1.76125133844263 0.2664185110770386
lclavicle -2.361814981269272e-15 5.30780207710522e-16
lhumerus -35.26008658733625 8.618486272313238 80.96653757103591
lradius 19.058116134267877
lwrist 1.3263250035446896
lhand -28.10175226801629 23.228372544100868
lfingers 7.12502
lthumb -1.4840765217133094 53.19335679578088
rclavicle -2.3618149812692724e-15 5.30780207710522e-16
rhumerus -22.884636376914038 -10.356131283200275 -81.90219277640459
rradius 28.678498996239114
rwrist 1.7094334166348748
rhand -18.20307369119274 24.148165681814024
rfingers 7.12502
rthumb 8.07427203586772 -5.678135594073689
85
root 0.29936601564352616 17.62537411803545 34.97361608439994 -0.7336022663587081 -6.588763646130138 -7.666770053245445
lfemur -23.93868781062129 -5.541519059662765 -9.591803016211239
ltibia 13.366050466181754
lfoot -5.193515625622768 7.064590272634526
ltoes -2.5046292484648784
rfemur 8.632952859966373 6.176386273996669 34.38201154899645
rtibia 26.814819075274393
rfoot -20.53566291189085 -4.465421542601788
rtoes -2.0750489374343712
lowerback 8.779987009789199 2.9231016195982793 6.906717984993463
upperback 0.3922055417971833 4.643635145699646 1.9309041374654354
thorax -4.38691701488078 2.1879247789848537 -2.261860098353353
lowerneck -16.70606259268232 -2.9079073701508396 -1.7295154338278682
upperneck 19.831028555310493 -3.834180313782733 1.4154784475046558
head 9.012332568079097 -1.7952276035281176 0.27733218250499314
lclavicle -2.1794632157523926e-15 6.966494147036225e-16
lhumerus -36.13933470883021 10.164484854834805 80.11279525081942
lradius 17.71826557294596
lwrist -0.029595326276264267
lhand -27.58954712353629 23.421465557151016
lfingers 7.12502
lthumb -0.9893735820033802 53.391534839726624
rclavicle -2.1794632157523926e-15 6.966494147036225e-16
rhumerus -22.693136510120535 -10.877566886249689 -81.81644534692718
rradius 28.859836702531467
rwrist 1.9289775706324734
rhand -18.272146716814767 24.121512714897538
rfingers 7.12502
rthumb 8.007594453520824 -5.706913050431162
86
root 0.37358119108161464 17.607359966792917 35.64786402026948 -1.086299910684468 -6.335452644130218 -6.896131365317238
lfemur -23.585967335841588 -4.772677165757447 -11.137600829621313
ltibia 16.55178951410052
lfoot -3.969433814619699 4.153528591518207
ltoes -1.2909675792724924
rfemur 10.036213198329332 5.896834728402203 33.37289136990005
rtibia 30.24588957641346
rfoot -17.192693076844844 -2.227324977803079
rtoes -4.220093290529153
lowerback 8.719671228362124 2.99421043360034 6.445588094007388
upperback 0.3840787590904573 4.67521779335117 1.7228239725885173
thorax -4.369348595986596 2.2113458231545953 -2.135896298869449
lowerneck -16.55579849685072 -2.9801636604990924 -1.750875936186308
upperneck 20.005647744928627 -3.94979843169912 1.5238356810605547
head 9.060622962508262 -1.839983994355757 0.2968132585908225
lclavicle -1.817139232348702e-15 1.0292738431766835e-15
lhumerus -36.96399292885065 11.456063750046475 79.33866169686603
lradius 16.715737519604936
lwrist -1.2864701086823747
lhand -26.89812748212158 23.39768776446473
lfingers 7.12502
lthumb -0.32160384511057094 53.37173311965781
rclavicle -1.817139232348702e-15 1.0292738431766833e-15
rhumerus -22.910985949251046 -11.65030049487455 -81.63083891164226
rradius 29.024730116129962
rwrist 2.299653376176072
rhand -18.293905190802715 24.146303892110712
rfingers 7.12502
rthumb 7.986584863361058 -5.683439786221124
